<svg id="visual" viewBox="0 0 900 600" width="900" height="600" xmlns="http://www.w3.org/2000/svg" xmlns:xlink="http://www.w3.org/1999/xlink" version="1.1"><path d="M0 91L82 43L164 49L245 103L327 85L409 97L491 49L573 85L655 49L736 37L818 85L900 85L900 0L818 0L736 0L655 0L573 0L491 0L409 0L327 0L245 0L164 0L82 0L0 0Z" fill="#0f172a"></path><path d="M0 265L82 247L164 217L245 313L327 307L409 259L491 199L573 289L655 223L736 187L818 289L900 247L900 83L818 83L736 35L655 47L573 83L491 47L409 95L327 83L245 101L164 47L82 41L0 89Z" fill="#0f1524"></path><path d="M0 385L82 397L164 469L245 421L327 457L409 361L491 397L573 421L655 391L736 367L818 397L900 373L900 245L818 287L736 185L655 221L573 287L491 197L409 257L327 305L245 311L164 215L82 245L0 263Z" fill="#0e131f"></path><path d="M0 517L82 499L164 553L245 493L327 559L409 505L491 511L573 487L655 559L736 493L818 499L900 523L900 371L818 395L736 365L655 389L573 419L491 395L409 359L327 455L245 419L164 467L82 395L0 383Z" fill="#0d111a"></path><path d="M0 601L82 601L164 601L245 601L327 601L409 601L491 601L573 601L655 601L736 601L818 601L900 601L900 521L818 497L736 491L655 557L573 485L491 509L409 503L327 557L245 491L164 551L82 497L0 515Z" fill="#0b0e14"></path></svg>